<?xml version="1.0" encoding="UTF-8" standalone="no"?>
<svg
   width="18px"
   height="18px"
   viewBox="0 0 18 18"
   version="1.1"
   id="svg5"
   sodipodi:docname="search.svg"
   inkscape:version="1.1.2 (0a00cf5339, 2022-02-04)"
   xmlns:inkscape="http://www.inkscape.org/namespaces/inkscape"
   xmlns:sodipodi="http://sodipodi.sourceforge.net/DTD/sodipodi-0.dtd"
   xmlns="http://www.w3.org/2000/svg"
   xmlns:svg="http://www.w3.org/2000/svg">
  <defs
     id="defs9" />
  <sodipodi:namedview
     id="namedview7"
     pagecolor="#ffffff"
     bordercolor="#666666"
     borderopacity="1.0"
     inkscape:pageshadow="2"
     inkscape:pageopacity="0.0"
     inkscape:pagecheckerboard="0"
     showgrid="false"
     inkscape:zoom="32.684047"
     inkscape:cx="7.6795876"
     inkscape:cy="9.9436891"
     inkscape:window-width="1920"
     inkscape:window-height="1008"
     inkscape:window-x="1366"
     inkscape:window-y="0"
     inkscape:window-maximized="1"
     inkscape:current-layer="svg5" />
  <g
     id="surface1"
     transform="matrix(1.7384411,0,0,1.7384411,-6.4048968,-6.3947113)">
    <path
       style="fill:#000000;fill-opacity:1;fill-rule:nonzero;stroke:none"
       d="m 10.972656,10.125 h -0.445312 l -0.15625,-0.152344 c 0.550781,-0.644531 0.882812,-1.476562 0.882812,-2.378906 0,-2.019531 -1.636718,-3.65625 -3.65625,-3.65625 -2.019531,0 -3.65625,1.636719 -3.65625,3.65625 0,2.015625 1.636719,3.65625 3.65625,3.65625 0.90625,0 1.738282,-0.332031 2.378906,-0.886719 l 0.152344,0.160157 v 0.445312 l 2.8125,2.804688 0.839844,-0.835938 z m -3.375,0 c -1.402344,0 -2.53125,-1.132812 -2.53125,-2.53125 0,-1.402344 1.128906,-2.53125 2.53125,-2.53125 1.402344,0 2.53125,1.128906 2.53125,2.53125 0,1.398438 -1.128906,2.53125 -2.53125,2.53125 z m 0,0"
       id="path2" />
  </g>
</svg>
